<svg width="25" height="25" viewBox="0 0 25 25" fill="none" xmlns="http://www.w3.org/2000/svg"><path fill-rule="evenodd" clip-rule="evenodd" d="M0 12.5a12.5 12.5 0 1 1 25 0 12.5 12.5 0 0 1-25 0Zm14.64 3.22c-.34-.4-.65-.75-.92-.67-.44.15-.43 1.12-.43 1.12s0 .21-.1.32c-.11.12-.33.15-.33.15h-.72s-1.59.1-2.99-1.38c-1.52-1.6-2.87-4.8-2.87-4.8s-.07-.2 0-.3c.1-.11.36-.12.36-.12l1.72-.01s.16.03.28.11c.1.07.15.2.15.2s.28.72.65 1.36c.71 1.25 1.05 1.53 1.3 1.4.35-.2.24-1.78.24-1.78s0-.57-.18-.83c-.14-.2-.41-.25-.53-.27-.1-.01.06-.24.27-.34.3-.16.85-.17 1.5-.16.5 0 .65.04.85.09.45.11.44.47.4 1.24l-.01.8v.23c-.02.39-.03.84.23 1 .13.1.45.02 1.26-1.36a10.7 10.7 0 0 0 .67-1.43c.06-.18.21-.24.4-.24l1.8-.01s.55-.07.63.18c.1.26-.2.87-.94 1.87-.7.95-1.04 1.3-1.01 1.6.02.23.25.43.67.83a5.65 5.65 0 0 1 1.2 1.4c.4.66-.45.72-.45.72l-1.6.02s-.35.07-.8-.25c-.24-.16-.48-.43-.7-.69Z" fill="currentColor"/></svg>