<svg xmlns="http://www.w3.org/2000/svg" width="450" height="450" style="shape-rendering:geometricPrecision;text-rendering:geometricPrecision;image-rendering:optimizeQuality;fill-rule:evenodd;clip-rule:evenodd"><path style="opacity:.998" fill="#404a54" d="M79.5 94.5c22-.17 44 0 66 .5a17.83 17.83 0 0 1 5.5 4.5 1401.5 1401.5 0 0 1 1.5 91h144c-.17-29.67 0-59.34.5-89a17.84 17.84 0 0 1 4.5-5.5 314.8 314.8 0 0 1 35-1.5c35.67-9 49 4.33 40 40 16.34-.17 32.67 0 49 .5a17.84 17.84 0 0 1 5.5 4.5 517.21 517.21 0 0 1 1.5 55c5.45-.36 9.29 1.98 11.5 7 .67 16.67.67 33.33 0 50-2.21 5.02-6.05 7.36-11.5 7 .47 18.43-.03 36.76-1.5 55a17.84 17.84 0 0 1-5.5 4.5c-16.33.5-32.66.67-49 .5.17 9.67 0 19.34-.5 29a15.3 15.3 0 0 1-6.5 6.5c-22.75.98-45.42.64-68-1a17.84 17.84 0 0 1-4.5-5.5c-.5-28.33-.67-56.67-.5-85h-144c.17 28.33 0 56.67-.5 85a17.84 17.84 0 0 1-4.5 5.5 587.72 587.72 0 0 1-68 1 15.3 15.3 0 0 1-6.5-6.5c-.5-9.66-.67-19.33-.5-29-16.34.17-32.67 0-49-.5a17.84 17.84 0 0 1-5.5-4.5 517.43 517.43 0 0 1-1.5-55c-5.45.36-9.28-1.98-11.5-7a625.25 625.25 0 0 1 0-50c2.22-5.02 6.05-7.36 11.5-7-.47-18.43.03-36.76 1.5-55a17.84 17.84 0 0 1 5.5-4.5c16.33-.5 32.66-.67 49-.5-.17-11 0-22 .5-33a21.9 21.9 0 0 1 6.5-7Z"/><path style="opacity:1" fill="#fefffe" d="M128.5 142.5h-32v-24h32v24ZM352.5 142.5h-32v-24h32v24Z"/><path style="opacity:1" fill="#fe797b" d="M96.5 142.5h32v144h-32c.48-22.1-.02-44.1-1.5-66-7.03-7.91-14.03-7.91-21 0-1.45 9.9-1.95 19.9-1.5 30h-32v-68h40c6.04.82 10.88-1.18 14.5-6a206.62 206.62 0 0 0 1.5-34ZM320.5 142.5h32a206.7 206.7 0 0 0 1.5 34c3.23 4.87 7.73 6.87 13.5 6h41v68h-32c.45-10.77-.05-21.44-1.5-32-7.03-7.91-14.03-7.91-21 0a786.54 786.54 0 0 0-1.5 68h-32v-144Z"/><path style="opacity:1" fill="#fefefe" d="M80.5 182.5h-40v-24h32c-.17 5.01 0 10.01.5 15a14.5 14.5 0 0 0 7.5 9ZM408.5 182.5h-41c2.9-1.38 5.4-3.38 7.5-6a63.13 63.13 0 0 0 1.5-18h32v24Z"/><path style="opacity:1" fill="#69727a" d="M180.5 214.5v16h116v8h-144v-24h28Z"/><path style="opacity:1" fill="#94a0ab" d="M180.5 214.5h116v16h-116v-16Z"/><path style="opacity:1" fill="#e15c60" d="M40.5 250.5h32v44h-32v-44ZM376.5 250.5h32v44h-32v-44ZM96.5 286.5h32v44h-32v-44ZM320.5 286.5h32v44h-32v-44Z"/></svg>