<svg width="119" height="23" viewBox="0 0 119 23" xmlns="http://www.w3.org/2000/svg"><path d="M5.77 22.25c-1.18 0-2.2-.18-3.06-.54-.87-.36-1.53-1-1.98-1.9a9.21 9.21 0 0 1-.65-3.86v-1.22H3.61v1.51c0 1 .1 1.79.29 2.34.19.55.45.94.79 1.15.33.2.72.29 1.15.29.7 0 1.25-.23 1.66-.68.43-.48.64-1.37.64-2.67 0-.96-.14-1.68-.43-2.16a3 3 0 0 0-1.37-1.15c-.6-.31-1.38-.66-2.34-1.04a9 9 0 0 1-2.05-1.26c-.57-.48-1-1.1-1.3-1.84a7.73 7.73 0 0 1-.43-2.77C.22 5.1.4 4 .72 3.17c.37-.86.97-1.49 1.8-1.87C3.38.9 4.5.69 5.93.69c1.82 0 3.2.42 4.17 1.26.96.81 1.44 2.01 1.44 3.6v2.48H8.14V6.56c0-1.1-.18-1.9-.54-2.38-.33-.5-.88-.76-1.65-.76-.8 0-1.37.24-1.73.72-.34.46-.5 1.2-.5 2.2 0 .86.16 1.54.5 2.02.34.45.77.81 1.3 1.08.55.26 1.11.5 1.69.72 1.08.4 1.95.82 2.63 1.26.67.43 1.16 1 1.47 1.72.31.72.47 1.74.47 3.06a7.3 7.3 0 0 1-.76 3.6 4.18 4.18 0 0 1-2.08 1.88c-.9.38-1.95.57-3.17.57Zm15.15.18c-.82 0-1.58-.06-2.27-.18a3.54 3.54 0 0 1-2.99-2.34 8.03 8.03 0 0 1-.43-2.91V.72h3.45V17.9c0 .64.1 1.15.3 1.5.2.34.48.57.82.7.34.11.7.17 1.12.17.4 0 .78-.06 1.11-.18.34-.12.6-.35.8-.68.21-.36.32-.87.32-1.51V.72h3.42v16.24c0 1.22-.15 2.2-.43 2.95a3.32 3.32 0 0 1-1.16 1.62c-.5.36-1.1.6-1.8.72s-1.45.18-2.26.18Zm9.9-.43V.72h7.2c1.35 0 2.38.3 3.1.9.72.6 1.08 1.5 1.08 2.67v3.78c0 .91-.12 1.76-.36 2.55-.22.77-.65 1.4-1.3 1.88-.62.48-1.53.72-2.73.72h-3.39V22h-3.6Zm3.6-10.73h2.2a1.8 1.8 0 0 0 1.62-.83c.36-.57.54-1.5.54-2.77v-1.9c0-1.13-.16-1.94-.47-2.42a1.47 1.47 0 0 0-1.3-.72h-2.59v8.64ZM45.6 22V.72h9.58v2.45H49.2v6.45h4.94v2.7H49.2v7.3h5.98V22H45.6Zm12.85 0V.72h7.35c1.34 0 2.37.3 3.1.9.74.6 1.1 1.5 1.1 2.67v3.38c0 1.18-.31 2.14-.96 2.88-.65.72-1.61 1.12-2.88 1.19.81.07 1.39.34 1.73.8.36.45.68 1.16.97 2.12L70.9 22h-3.82l-1.69-7.1c-.17-.6-.36-1.12-.57-1.58-.22-.45-.57-.68-1.05-.68h-1.76V22h-3.57Zm3.57-11.77h2.3c.84 0 1.43-.22 1.77-.65.36-.43.54-1.1.54-1.98V4.9c0-.8-.17-1.37-.5-1.73-.32-.36-.81-.54-1.48-.54h-2.63v7.6Zm16.6 12.17c-.82 0-1.6-.14-2.31-.4a3.27 3.27 0 0 1-1.76-1.48 7.14 7.14 0 0 1-.65-3.42V5.22c0-1.3.24-2.28.72-2.95a3.5 3.5 0 0 1 2.01-1.4c.87-.27 1.86-.4 3-.4 1.12 0 2.12.13 2.98.4.86.26 1.54.74 2.02 1.44.5.67.75 1.64.75 2.91V8.1h-3.35V5.08c0-.72-.1-1.26-.32-1.62-.2-.36-.47-.6-.83-.72a3.66 3.66 0 0 0-1.22-.18c-.43 0-.83.06-1.2.18-.35.12-.64.36-.85.72-.2.36-.3.9-.3 1.62v12.78c0 .72.1 1.26.3 1.62.21.36.5.6.86.72s.76.18 1.19.18c.7 0 1.26-.2 1.69-.61.46-.43.68-1.07.68-1.91v-4.32h-2.12v-1.98h5.47V22h-2.6l-.17-1.8a4.9 4.9 0 0 1-.36.58c-.29.43-.72.81-1.3 1.15a4.8 4.8 0 0 1-2.34.47Zm13.3-.4v-9.14L87.94.72h3.42L93.6 8l.18 1.11L94 8 96.34.72h3.2l-4.17 12.32V22H91.9Zm10.53 0V.72h4.25l3.56 15.12 3.6-15.12h4.21V22h-3.06V5.58L111.45 22h-2.38l-3.56-16.42V22h-3.06Z"/></svg>