<svg width="25" height="25" viewBox="0 0 25 25" fill="none" xmlns="http://www.w3.org/2000/svg"><path fill-rule="evenodd" clip-rule="evenodd" d="M0 12.5a12.5 12.5 0 1 1 25 0 12.5 12.5 0 0 1-25 0Zm12.72-6.4a1.5 1.5 0 0 1 1.13-.54c.72 0 1.2.49 1.45.81a10.36 10.36 0 0 1 .27.35c.06.05.08.05.17.05V8c-.32 0-.62-.15-.83-.32-.17-.16-.3-.31-.4-.45l-.03-.05-.07-.08c-.16-.22-.24-.32-.56-.32-.17 0-.24.05-.34.17-.1.13-.19.35-.27.65a8.5 8.5 0 0 0-.18 1.75c1.24.09 2.37.46 3.3 1.03a2 2 0 0 1 1.29-.5c.5 0 .98.23 1.33.67.68.85.6 2.24-.18 3.06.05.26.08.52.08.78 0 2.8-2.86 5.06-6.38 5.06-3.53 0-6.38-2.26-6.38-5.06 0-.26.03-.52.08-.78a2.42 2.42 0 0 1-.18-3.06 1.7 1.7 0 0 1 1.33-.67 2 2 0 0 1 1.28.5 7.32 7.32 0 0 1 3.33-1.03c.01-.67.07-1.42.24-2.1.1-.41.25-.8.52-1.13Zm3.12 1.28c0-.94.68-1.71 1.52-1.71s1.52.77 1.52 1.71c0 .95-.68 1.71-1.52 1.71s-1.52-.76-1.52-1.7Zm2.5 0c0-.6-.44-1.1-.98-1.1s-.98.5-.98 1.1c0 .61.44 1.1.98 1.1s.98-.49.98-1.1Zm-.32 7c0-2.21-2.53-4.09-5.52-4.09-3 0-5.52 1.88-5.52 4.1 0 2.21 2.53 4.08 5.52 4.08 3 0 5.52-1.87 5.52-4.09Zm-10.2-3.42c-.15-.07-.3-.11-.45-.12a.88.88 0 0 0-.71.35c-.25.3-.3.9-.1 1.37.29-.6.72-1.14 1.26-1.6Zm10.52.23a.88.88 0 0 0-.7-.35c-.16 0-.31.05-.46.12.54.46.97 1 1.26 1.6.2-.47.15-1.06-.1-1.37Zm-8.98 2.28c0-.6.44-1.1.98-1.1s.98.5.98 1.1c0 .6-.44 1.1-.98 1.1s-.98-.5-.98-1.1Zm4.32 0c0-.6.44-1.1.98-1.1s.98.5.98 1.1c0 .6-.44 1.1-.98 1.1s-.98-.5-.98-1.1Zm-1.18 4.22c-1.28 0-2.34-.77-2.68-1.58.62.46 1.59.77 2.68.77 1.1 0 2.08-.31 2.7-.77-.34.8-1.42 1.58-2.7 1.58Z" fill="currentColor"/></svg>