<svg xmlns="http://www.w3.org/2000/svg" xmlns:xlink="http://www.w3.org/1999/xlink"><symbol id="icon-close" viewBox="0 0 20 20"><g fill="none"><path d="M.293 18.291a1 1 0 101.414 1.414L10 11.413l8.292 8.292a1 1 0 101.414-1.414l-8.292-8.292 8.292-8.292A1 1 0 1018.291.293L9.999 8.585 1.707.293A1 1 0 10.293 1.707L8.585 10 .293 18.291z"/></g></symbol><symbol id="logo" viewBox="0 0 119 23"><path d="M5.77 22.25c-1.18 0-2.2-.18-3.06-.54-.87-.36-1.53-1-1.98-1.9a9.21 9.21 0 0 1-.65-3.86v-1.22H3.61v1.51c0 1 .1 1.79.29 2.34.19.55.45.94.79 1.15.33.2.72.29 1.15.29.7 0 1.25-.23 1.66-.68.43-.48.64-1.37.64-2.67 0-.96-.14-1.68-.43-2.16a3 3 0 0 0-1.37-1.15c-.6-.31-1.38-.66-2.34-1.04a9 9 0 0 1-2.05-1.26c-.57-.48-1-1.1-1.3-1.84a7.73 7.73 0 0 1-.43-2.77C.22 5.1.4 4 .72 3.17c.37-.86.97-1.49 1.8-1.87C3.38.9 4.5.69 5.93.69c1.82 0 3.2.42 4.17 1.26.96.81 1.44 2.01 1.44 3.6v2.48H8.14V6.56c0-1.1-.18-1.9-.54-2.38-.33-.5-.88-.76-1.65-.76-.8 0-1.37.24-1.73.72-.34.46-.5 1.2-.5 2.2 0 .86.16 1.54.5 2.02.34.45.77.81 1.3 1.08.55.26 1.11.5 1.69.72 1.08.4 1.95.82 2.63 1.26.67.43 1.16 1 1.47 1.72.31.72.47 1.74.47 3.06a7.3 7.3 0 0 1-.76 3.6 4.18 4.18 0 0 1-2.08 1.88c-.9.38-1.95.57-3.17.57Zm15.15.18c-.82 0-1.58-.06-2.27-.18a3.54 3.54 0 0 1-2.99-2.34 8.03 8.03 0 0 1-.43-2.91V.72h3.45V17.9c0 .64.1 1.15.3 1.5.2.34.48.57.82.7.34.11.7.17 1.12.17.4 0 .78-.06 1.11-.18.34-.12.6-.35.8-.68.21-.36.32-.87.32-1.51V.72h3.42v16.24c0 1.22-.15 2.2-.43 2.95a3.32 3.32 0 0 1-1.16 1.62c-.5.36-1.1.6-1.8.72s-1.45.18-2.26.18Zm9.9-.43V.72h7.2c1.35 0 2.38.3 3.1.9.72.6 1.08 1.5 1.08 2.67v3.78c0 .91-.12 1.76-.36 2.55-.22.77-.65 1.4-1.3 1.88-.62.48-1.53.72-2.73.72h-3.39V22h-3.6Zm3.6-10.73h2.2a1.8 1.8 0 0 0 1.62-.83c.36-.57.54-1.5.54-2.77v-1.9c0-1.13-.16-1.94-.47-2.42a1.47 1.47 0 0 0-1.3-.72h-2.59v8.64ZM45.6 22V.72h9.58v2.45H49.2v6.45h4.94v2.7H49.2v7.3h5.98V22H45.6Zm12.85 0V.72h7.35c1.34 0 2.37.3 3.1.9.74.6 1.1 1.5 1.1 2.67v3.38c0 1.18-.31 2.14-.96 2.88-.65.72-1.61 1.12-2.88 1.19.81.07 1.39.34 1.73.8.36.45.68 1.16.97 2.12L70.9 22h-3.82l-1.69-7.1c-.17-.6-.36-1.12-.57-1.58-.22-.45-.57-.68-1.05-.68h-1.76V22h-3.57Zm3.57-11.77h2.3c.84 0 1.43-.22 1.77-.65.36-.43.54-1.1.54-1.98V4.9c0-.8-.17-1.37-.5-1.73-.32-.36-.81-.54-1.48-.54h-2.63v7.6Zm16.6 12.17c-.82 0-1.6-.14-2.31-.4a3.27 3.27 0 0 1-1.76-1.48 7.14 7.14 0 0 1-.65-3.42V5.22c0-1.3.24-2.28.72-2.95a3.5 3.5 0 0 1 2.01-1.4c.87-.27 1.86-.4 3-.4 1.12 0 2.12.13 2.98.4.86.26 1.54.74 2.02 1.44.5.67.75 1.64.75 2.91V8.1h-3.35V5.08c0-.72-.1-1.26-.32-1.62-.2-.36-.47-.6-.83-.72a3.66 3.66 0 0 0-1.22-.18c-.43 0-.83.06-1.2.18-.35.12-.64.36-.85.72-.2.36-.3.9-.3 1.62v12.78c0 .72.1 1.26.3 1.62.21.36.5.6.86.72s.76.18 1.19.18c.7 0 1.26-.2 1.69-.61.46-.43.68-1.07.68-1.91v-4.32h-2.12v-1.98h5.47V22h-2.6l-.17-1.8a4.9 4.9 0 0 1-.36.58c-.29.43-.72.81-1.3 1.15a4.8 4.8 0 0 1-2.34.47Zm13.3-.4v-9.14L87.94.72h3.42L93.6 8l.18 1.11L94 8 96.34.72h3.2l-4.17 12.32V22H91.9Zm10.53 0V.72h4.25l3.56 15.12 3.6-15.12h4.21V22h-3.06V5.58L111.45 22h-2.38l-3.56-16.42V22h-3.06Z"/></symbol><symbol id="ok" viewBox="0 0 25 25"><g fill="none"><path fill-rule="evenodd" clip-rule="evenodd" d="M0 12.5a12.5 12.5 0 1 1 25 0 12.5 12.5 0 0 1-25 0Zm14.3-3.93c0-.93-.72-1.68-1.62-1.68-.9 0-1.63.75-1.63 1.68 0 .93.73 1.68 1.63 1.68.9 0 1.63-.75 1.63-1.68Zm2.32 0a4 4 0 0 1-3.94 4.06 4 4 0 0 1-3.93-4.06 4 4 0 0 1 3.93-4.06 4 4 0 0 1 3.94 4.06Zm-.06 6.4c-.72.46-1.49.78-2.29.97l2.2 2.27c.45.47.45 1.22 0 1.68-.45.47-1.18.47-1.63 0l-2.16-2.23-2.16 2.23a1.14 1.14 0 0 1-1.63 0 1.22 1.22 0 0 1 0-1.68l2.2-2.27a7.29 7.29 0 0 1-2.29-.97 1.21 1.21 0 0 1-.36-1.64 1.13 1.13 0 0 1 1.6-.38 4.87 4.87 0 0 0 5.29 0 1.13 1.13 0 0 1 1.59.38c.34.55.17 1.29-.36 1.64Z" fill="currentColor"/></g></symbol><symbol id="reddit" viewBox="0 0 25 25"><g fill="none"><path fill-rule="evenodd" clip-rule="evenodd" d="M0 12.5a12.5 12.5 0 1 1 25 0 12.5 12.5 0 0 1-25 0Zm12.72-6.4a1.5 1.5 0 0 1 1.13-.54c.72 0 1.2.49 1.45.81a10.36 10.36 0 0 1 .27.35c.06.05.08.05.17.05V8c-.32 0-.62-.15-.83-.32-.17-.16-.3-.31-.4-.45l-.03-.05-.07-.08c-.16-.22-.24-.32-.56-.32-.17 0-.24.05-.34.17-.1.13-.19.35-.27.65a8.5 8.5 0 0 0-.18 1.75c1.24.09 2.37.46 3.3 1.03a2 2 0 0 1 1.29-.5c.5 0 .98.23 1.33.67.68.85.6 2.24-.18 3.06.05.26.08.52.08.78 0 2.8-2.86 5.06-6.38 5.06-3.53 0-6.38-2.26-6.38-5.06 0-.26.03-.52.08-.78a2.42 2.42 0 0 1-.18-3.06 1.7 1.7 0 0 1 1.33-.67 2 2 0 0 1 1.28.5 7.32 7.32 0 0 1 3.33-1.03c.01-.67.07-1.42.24-2.1.1-.41.25-.8.52-1.13Zm3.12 1.28c0-.94.68-1.71 1.52-1.71s1.52.77 1.52 1.71c0 .95-.68 1.71-1.52 1.71s-1.52-.76-1.52-1.7Zm2.5 0c0-.6-.44-1.1-.98-1.1s-.98.5-.98 1.1c0 .61.44 1.1.98 1.1s.98-.49.98-1.1Zm-.32 7c0-2.21-2.53-4.09-5.52-4.09-3 0-5.52 1.88-5.52 4.1 0 2.21 2.53 4.08 5.52 4.08 3 0 5.52-1.87 5.52-4.09Zm-10.2-3.42c-.15-.07-.3-.11-.45-.12a.88.88 0 0 0-.71.35c-.25.3-.3.9-.1 1.37.29-.6.72-1.14 1.26-1.6Zm10.52.23a.88.88 0 0 0-.7-.35c-.16 0-.31.05-.46.12.54.46.97 1 1.26 1.6.2-.47.15-1.06-.1-1.37Zm-8.98 2.28c0-.6.44-1.1.98-1.1s.98.5.98 1.1c0 .6-.44 1.1-.98 1.1s-.98-.5-.98-1.1Zm4.32 0c0-.6.44-1.1.98-1.1s.98.5.98 1.1c0 .6-.44 1.1-.98 1.1s-.98-.5-.98-1.1Zm-1.18 4.22c-1.28 0-2.34-.77-2.68-1.58.62.46 1.59.77 2.68.77 1.1 0 2.08-.31 2.7-.77-.34.8-1.42 1.58-2.7 1.58Z" fill="currentColor"/></g></symbol><symbol id="rub" viewBox="0 0 30 42"><path fill-rule="evenodd" clip-rule="evenodd" d="M0 17h6v6H0v-6Z"/><path fill-rule="evenodd" clip-rule="evenodd" d="M3.66 28.32V18h6v10.32H21v6H9.66V42h-6v-7.68H0v-6h3.66Z"/><path fill-rule="evenodd" clip-rule="evenodd" d="M18.5 6H10v11h8.5a5.5 5.5 0 1 0 0-11ZM4 0v23h14.5a11.5 11.5 0 1 0 0-23H4Z"/></symbol><symbol id="vk" viewBox="0 0 25 25"><g fill="none"><path fill-rule="evenodd" clip-rule="evenodd" d="M0 12.5a12.5 12.5 0 1 1 25 0 12.5 12.5 0 0 1-25 0Zm14.64 3.22c-.34-.4-.65-.75-.92-.67-.44.15-.43 1.12-.43 1.12s0 .21-.1.32c-.11.12-.33.15-.33.15h-.72s-1.59.1-2.99-1.38c-1.52-1.6-2.87-4.8-2.87-4.8s-.07-.2 0-.3c.1-.11.36-.12.36-.12l1.72-.01s.16.03.28.11c.1.07.15.2.15.2s.28.72.65 1.36c.71 1.25 1.05 1.53 1.3 1.4.35-.2.24-1.78.24-1.78s0-.57-.18-.83c-.14-.2-.41-.25-.53-.27-.1-.01.06-.24.27-.34.3-.16.85-.17 1.5-.16.5 0 .65.04.85.09.45.11.44.47.4 1.24l-.01.8v.23c-.02.39-.03.84.23 1 .13.1.45.02 1.26-1.36a10.7 10.7 0 0 0 .67-1.43c.06-.18.21-.24.4-.24l1.8-.01s.55-.07.63.18c.1.26-.2.87-.94 1.87-.7.95-1.04 1.3-1.01 1.6.02.23.25.43.67.83a5.65 5.65 0 0 1 1.2 1.4c.4.66-.45.72-.45.72l-1.6.02s-.35.07-.8-.25c-.24-.16-.48-.43-.7-.69Z" fill="currentColor"/></g></symbol></svg>