<svg width="25" height="25" viewBox="0 0 25 25" fill="none" xmlns="http://www.w3.org/2000/svg"><path fill-rule="evenodd" clip-rule="evenodd" d="M0 12.5a12.5 12.5 0 1 1 25 0 12.5 12.5 0 0 1-25 0Zm14.3-3.93c0-.93-.72-1.68-1.62-1.68-.9 0-1.63.75-1.63 1.68 0 .93.73 1.68 1.63 1.68.9 0 1.63-.75 1.63-1.68Zm2.32 0a4 4 0 0 1-3.94 4.06 4 4 0 0 1-3.93-4.06 4 4 0 0 1 3.93-4.06 4 4 0 0 1 3.94 4.06Zm-.06 6.4c-.72.46-1.49.78-2.29.97l2.2 2.27c.45.47.45 1.22 0 1.68-.45.47-1.18.47-1.63 0l-2.16-2.23-2.16 2.23a1.14 1.14 0 0 1-1.63 0 1.22 1.22 0 0 1 0-1.68l2.2-2.27a7.29 7.29 0 0 1-2.29-.97 1.21 1.21 0 0 1-.36-1.64 1.13 1.13 0 0 1 1.6-.38 4.87 4.87 0 0 0 5.29 0 1.13 1.13 0 0 1 1.59.38c.34.55.17 1.29-.36 1.64Z" fill="currentColor"/></svg>